<svg xmlns="http://www.w3.org/2000/svg" version="1.1" xmlns:xlink="http://www.w3.org/1999/xlink" xmlns:svgjs="http://svgjs.dev/svgjs" width="1440" height="700" preserveAspectRatio="none" viewBox="0 0 1440 700"><g mask="url(&quot;#SvgjsMask1595&quot;)" fill="none"><rect width="1440" height="700" x="0" y="0" fill="url(&quot;#SvgjsLinearGradient1596&quot;)"></rect><path d="M85 700L785 0L1032.5 0L332.5 700z" fill="url(&quot;#SvgjsLinearGradient1597&quot;)"></path><path d="M553.2 700L1253.2 0L1950.7 0L1250.7 700z" fill="url(&quot;#SvgjsLinearGradient1597&quot;)"></path><path d="M1411 700L711 0L57 0L757 700z" fill="url(&quot;#SvgjsLinearGradient1598&quot;)"></path><path d="M959.8 700L259.79999999999995 0L-220.20000000000005 0L479.79999999999995 700z" fill="url(&quot;#SvgjsLinearGradient1598&quot;)"></path><path d="M919.6065462826768 700L1440 179.60654628267685L1440 700z" fill="url(&quot;#SvgjsLinearGradient1597&quot;)"></path><path d="M0 700L520.3934537173232 700L 0 179.60654628267685z" fill="url(&quot;#SvgjsLinearGradient1598&quot;)"></path></g><defs><mask id="SvgjsMask1595"><rect width="1440" height="700" fill="#ffffff"></rect></mask><linearGradient x1="12.85%" y1="-26.43%" x2="87.15%" y2="126.43%" gradientUnits="userSpaceOnUse" id="SvgjsLinearGradient1596"><stop stop-color="rgba(21, 1, 31, 1)" offset="0.04"></stop><stop stop-color="rgba(45, 13, 61, 1)" offset="0.38"></stop></linearGradient><linearGradient x1="0%" y1="100%" x2="100%" y2="0%" id="SvgjsLinearGradient1597"><stop stop-color="rgba(64, 3, 75, 1)" offset="0"></stop><stop stop-opacity="0" stop-color="rgba(64, 3, 75, 1)" offset="0.66"></stop></linearGradient><linearGradient x1="100%" y1="100%" x2="0%" y2="0%" id="SvgjsLinearGradient1598"><stop stop-color="rgba(64, 3, 75, 1)" offset="0"></stop><stop stop-opacity="0" stop-color="rgba(64, 3, 75, 1)" offset="0.66"></stop></linearGradient></defs></svg>